<svg xmlns="http://www.w3.org/2000/svg" version="1.1" width="290" height="290" viewBox="0 0 290 290" stroke="none">
	<rect width="290" height="290" fill="#FFFFFF"/>
	<path d="M40,40H110V110H40L40,40M40,120H50V130H40L40,120M40,160H50V150H70V160H60V170H40L40,160M40,180H110V250H40L40,180M50,50H100V100H50L50,50M50,190H100V240H50L50,190M60,60H90V90H60L60,60M60,120H110V130H90V140H80V150H70V130H60L60,120M60,200H90V230H60L60,200M70,160H90V150H100V160H110V170H70L70,160M100,140H110V150H100L100,140M110,130H130V140H150V150H160V130H180V140H190V150H180V160H170V170H160V160H140V150H120V140H110L110,130M110,150H120V160H110L110,150M120,60H130V80H140V90H160V100H150V120H160V130H130V120H140V100H130V120H120L120,60M120,160H130V180H120L120,160M120,190H130V200H140V210H130V220H140V210H150V220H170V230H180V240H160V230H150V240H140V230H120L120,190M120,240H140V250H120L120,240M130,50H140V60H130L130,50M130,180H150V200H140V190H130L130,180M140,60H150V50H160V60H170V70H140L140,60M150,200H160V180H170V170H180V160H190V150H200V170H220V180H200V200H190V190H180V200H190V210H150L150,200M150,240H160V250H150L150,240M160,40H170V50H160L160,40M160,80H170V90H160L160,80M160,100H170V110H160L160,100M180,40H250V110H180L180,40M180,120H230V140H240V150H230V160H210V140H200V130H180L180,120M180,220H190V210H200V200H210V210H220V220H200V230H180L180,220M180,240H190V250H180L180,240M190,50H240V100H190L190,50M200,60H230V90H200L200,60M200,230H220V220H230V240H210V250H200L200,230M210,190H220V180H240V200H250V210H230V200H210L210,190M230,240H240V250H230L230,240M240,130H250V140H240L240,130M240,160H250V170H240L240,160" fill="#000000" fill-rule="evenodd"/>
</svg>
