<?xml version="1.0" encoding="UTF-8" standalone="no"?>
<!DOCTYPE svg PUBLIC "-//W3C//DTD SVG 1.1//EN" "http://www.w3.org/Graphics/SVG/1.1/DTD/svg11.dtd">
<svg width="100%" height="100%" viewBox="0 0 87 43" version="1.1" xmlns="http://www.w3.org/2000/svg" xmlns:xlink="http://www.w3.org/1999/xlink" xml:space="preserve" xmlns:serif="http://www.serif.com/" style="fill-rule:evenodd;clip-rule:evenodd;stroke-linecap:round;stroke-linejoin:round;stroke-miterlimit:2;">
    <g transform="matrix(87,0,0,43,0,0)">
        <rect x="0" y="0" width="1" height="1" style="fill:white;"/>
    </g>
    <g transform="matrix(1,0,0,1,58,14)">
        <path d="M12,14L13,14L13,11L14,11L14,7L15,7L15,8L17,8L17,9L15,9L15,11L16,11L16,13L15,13L15,14L14,14L14,16L13,16L13,15L12,15L12,14M11,11L4,11L4,4L11,4L11,11M6,17L5,17L5,16L4,16L4,13L5,13L5,14L6,14L6,17M21,19L22,19L22,18L23,18L23,19L25,19L25,21L23,21L23,20L22,20L22,21L21,21L21,22L25,22L25,24L18,24L18,25L17,25L17,24L15,24L15,25L14,25L14,24L13,24L13,23L14,23L14,20L13,20L13,19L14,19L14,17L15,17L15,19L16,19L16,20L15,20L15,21L16,21L16,20L17,20L17,21L18,21L18,22L20,22L20,20L21,20L21,19M18,13L21,13L21,12L23,12L23,14L25,14L25,15L23,15L23,16L22,16L22,14L20,14L20,15L21,15L21,16L22,16L22,18L21,18L21,17L19,17L19,19L18,19L18,18L16,18L16,17L18,17L18,16L19,16L19,14L18,14L18,13M10,16L10,15L11,15L11,14L10,14L10,13L9,13L9,15L8,15L8,17L12,17L12,19L13,19L13,16L12,16L12,15L11,15L11,16L10,16M9,13L7,13L7,12L9,12L9,13M7,14L6,14L6,13L7,13L7,14M23,18L23,16L24,16L24,18L23,18M24,10L24,5L19,5L19,10L24,10M17,19L18,19L18,20L17,20L17,19M20,9L20,6L23,6L23,9L20,9M13,20L12,20L12,22L13,22L13,20M17,15L17,14L18,14L18,16L16,16L16,15L17,15M13,7L14,7L14,6L12,6L12,8L13,8L13,7M17,4L16,4L16,5L17,5L17,4M15,6L16,6L16,7L15,7L15,6M17,11L16,11L16,10L17,10L17,11M12,10L13,10L13,11L12,11L12,10M10,13L10,12L12,12L12,14L11,14L11,13L10,13M11,25L4,25L4,18L11,18L11,25M25,11L18,11L18,4L25,4L25,11M16,15L15,15L15,14L16,14L16,15M8,15L7,15L7,14L8,14L8,15M5,24L5,19L10,19L10,24L5,24M17,22L16,22L16,23L17,23L17,22M5,10L5,5L10,5L10,10L5,10M9,9L6,9L6,6L9,6L9,9M6,20L9,20L9,23L6,23L6,20" style="stroke:rgb(242,13,175);stroke-width:0.2px;"/>
    </g>
    <g transform="matrix(1,0,0,1,29,14)">
        <path d="M4,4L5,4L5,5L4,5L4,4ZM5,4L6,4L6,5L5,5L5,4ZM6,4L7,4L7,5L6,5L6,4ZM7,4L8,4L8,5L7,5L7,4ZM8,4L9,4L9,5L8,5L8,4ZM9,4L10,4L10,5L9,5L9,4ZM10,4L11,4L11,5L10,5L10,4ZM16,4L17,4L17,5L16,5L16,4ZM18,4L19,4L19,5L18,5L18,4ZM19,4L20,4L20,5L19,5L19,4ZM20,4L21,4L21,5L20,5L20,4ZM21,4L22,4L22,5L21,5L21,4ZM22,4L23,4L23,5L22,5L22,4ZM23,4L24,4L24,5L23,5L23,4ZM24,4L25,4L25,5L24,5L24,4ZM4,5L5,5L5,6L4,6L4,5ZM10,5L11,5L11,6L10,6L10,5ZM18,5L19,5L19,6L18,6L18,5ZM24,5L25,5L25,6L24,6L24,5ZM4,6L5,6L5,7L4,7L4,6ZM6,6L7,6L7,7L6,7L6,6ZM7,6L8,6L8,7L7,7L7,6ZM8,6L9,6L9,7L8,7L8,6ZM10,6L11,6L11,7L10,7L10,6ZM12,6L13,6L13,7L12,7L12,6ZM13,6L14,6L14,7L13,7L13,6ZM15,6L16,6L16,7L15,7L15,6ZM18,6L19,6L19,7L18,7L18,6ZM20,6L21,6L21,7L20,7L20,6ZM21,6L22,6L22,7L21,7L21,6ZM22,6L23,6L23,7L22,7L22,6ZM24,6L25,6L25,7L24,7L24,6ZM4,7L5,7L5,8L4,8L4,7ZM6,7L7,7L7,8L6,8L6,7ZM7,7L8,7L8,8L7,8L7,7ZM8,7L9,7L9,8L8,8L8,7ZM10,7L11,7L11,8L10,8L10,7ZM12,7L13,7L13,8L12,8L12,7ZM14,7L15,7L15,8L14,8L14,7ZM18,7L19,7L19,8L18,8L18,7ZM20,7L21,7L21,8L20,8L20,7ZM21,7L22,7L22,8L21,8L21,7ZM22,7L23,7L23,8L22,8L22,7ZM24,7L25,7L25,8L24,8L24,7ZM4,8L5,8L5,9L4,9L4,8ZM6,8L7,8L7,9L6,9L6,8ZM7,8L8,8L8,9L7,9L7,8ZM8,8L9,8L9,9L8,9L8,8ZM10,8L11,8L11,9L10,9L10,8ZM14,8L15,8L15,9L14,9L14,8ZM15,8L16,8L16,9L15,9L15,8ZM16,8L17,8L17,9L16,9L16,8ZM18,8L19,8L19,9L18,9L18,8ZM20,8L21,8L21,9L20,9L20,8ZM21,8L22,8L22,9L21,9L21,8ZM22,8L23,8L23,9L22,9L22,8ZM24,8L25,8L25,9L24,9L24,8ZM4,9L5,9L5,10L4,10L4,9ZM10,9L11,9L11,10L10,10L10,9ZM14,9L15,9L15,10L14,10L14,9ZM18,9L19,9L19,10L18,10L18,9ZM24,9L25,9L25,10L24,10L24,9ZM4,10L5,10L5,11L4,11L4,10ZM5,10L6,10L6,11L5,11L5,10ZM6,10L7,10L7,11L6,11L6,10ZM7,10L8,10L8,11L7,11L7,10ZM8,10L9,10L9,11L8,11L8,10ZM9,10L10,10L10,11L9,11L9,10ZM10,10L11,10L11,11L10,11L10,10ZM12,10L13,10L13,11L12,11L12,10ZM14,10L15,10L15,11L14,11L14,10ZM16,10L17,10L17,11L16,11L16,10ZM18,10L19,10L19,11L18,11L18,10ZM19,10L20,10L20,11L19,11L19,10ZM20,10L21,10L21,11L20,11L20,10ZM21,10L22,10L22,11L21,11L21,10ZM22,10L23,10L23,11L22,11L22,10ZM23,10L24,10L24,11L23,11L23,10ZM24,10L25,10L25,11L24,11L24,10ZM13,11L14,11L14,12L13,12L13,11ZM14,11L15,11L15,12L14,12L14,11ZM15,11L16,11L16,12L15,12L15,11ZM7,12L8,12L8,13L7,13L7,12ZM8,12L9,12L9,13L8,13L8,12ZM10,12L11,12L11,13L10,13L10,12ZM11,12L12,12L12,13L11,13L11,12ZM13,12L14,12L14,13L13,13L13,12ZM14,12L15,12L15,13L14,13L14,12ZM15,12L16,12L16,13L15,13L15,12ZM21,12L22,12L22,13L21,13L21,12ZM22,12L23,12L23,13L22,13L22,12ZM4,13L5,13L5,14L4,14L4,13ZM6,13L7,13L7,14L6,14L6,13ZM9,13L10,13L10,14L9,14L9,13ZM11,13L12,13L12,14L11,14L11,13ZM13,13L14,13L14,14L13,14L13,13ZM14,13L15,13L15,14L14,14L14,13ZM18,13L19,13L19,14L18,14L18,13ZM19,13L20,13L20,14L19,14L19,13ZM20,13L21,13L21,14L20,14L20,13ZM21,13L22,13L22,14L21,14L21,13ZM22,13L23,13L23,14L22,14L22,13ZM4,14L5,14L5,15L4,15L4,14ZM5,14L6,14L6,15L5,15L5,14ZM7,14L8,14L8,15L7,15L7,14ZM9,14L10,14L10,15L9,15L9,14ZM10,14L11,14L11,15L10,15L10,14ZM12,14L13,14L13,15L12,15L12,14ZM13,14L14,14L14,15L13,15L13,14ZM15,14L16,14L16,15L15,15L15,14ZM17,14L18,14L18,15L17,15L17,14ZM19,14L20,14L20,15L19,15L19,14ZM22,14L23,14L23,15L22,15L22,14ZM23,14L24,14L24,15L23,15L23,14ZM24,14L25,14L25,15L24,15L24,14ZM4,15L5,15L5,16L4,16L4,15ZM5,15L6,15L6,16L5,16L5,15ZM8,15L9,15L9,16L8,16L8,15ZM9,15L10,15L10,16L9,16L9,15ZM11,15L12,15L12,16L11,16L11,15ZM13,15L14,15L14,16L13,16L13,15ZM16,15L17,15L17,16L16,16L16,15ZM17,15L18,15L18,16L17,16L17,15ZM19,15L20,15L20,16L19,16L19,15ZM20,15L21,15L21,16L20,16L20,15ZM22,15L23,15L23,16L22,16L22,15ZM5,16L6,16L6,17L5,17L5,16ZM8,16L9,16L9,17L8,17L8,16ZM9,16L10,16L10,17L9,17L9,16ZM10,16L11,16L11,17L10,17L10,16ZM11,16L12,16L12,17L11,17L11,16ZM12,16L13,16L13,17L12,17L12,16ZM18,16L19,16L19,17L18,17L18,16ZM19,16L20,16L20,17L19,17L19,16ZM20,16L21,16L21,17L20,17L20,16ZM21,16L22,16L22,17L21,17L21,16ZM23,16L24,16L24,17L23,17L23,16ZM12,17L13,17L13,18L12,18L12,17ZM14,17L15,17L15,18L14,18L14,17ZM16,17L17,17L17,18L16,18L16,17ZM17,17L18,17L18,18L17,18L17,17ZM18,17L19,17L19,18L18,18L18,17ZM21,17L22,17L22,18L21,18L21,17ZM23,17L24,17L24,18L23,18L23,17ZM4,18L5,18L5,19L4,19L4,18ZM5,18L6,18L6,19L5,19L5,18ZM6,18L7,18L7,19L6,19L6,18ZM7,18L8,18L8,19L7,19L7,18ZM8,18L9,18L9,19L8,19L8,18ZM9,18L10,18L10,19L9,19L9,18ZM10,18L11,18L11,19L10,19L10,18ZM12,18L13,18L13,19L12,19L12,18ZM14,18L15,18L15,19L14,19L14,18ZM18,18L19,18L19,19L18,19L18,18ZM22,18L23,18L23,19L22,19L22,18ZM4,19L5,19L5,20L4,20L4,19ZM10,19L11,19L11,20L10,20L10,19ZM13,19L14,19L14,20L13,20L13,19ZM14,19L15,19L15,20L14,20L14,19ZM15,19L16,19L16,20L15,20L15,19ZM17,19L18,19L18,20L17,20L17,19ZM21,19L22,19L22,20L21,20L21,19ZM22,19L23,19L23,20L22,20L22,19ZM23,19L24,19L24,20L23,20L23,19ZM24,19L25,19L25,20L24,20L24,19ZM4,20L5,20L5,21L4,21L4,20ZM6,20L7,20L7,21L6,21L6,20ZM7,20L8,20L8,21L7,21L7,20ZM8,20L9,20L9,21L8,21L8,20ZM10,20L11,20L11,21L10,21L10,20ZM12,20L13,20L13,21L12,21L12,20ZM14,20L15,20L15,21L14,21L14,20ZM16,20L17,20L17,21L16,21L16,20ZM20,20L21,20L21,21L20,21L20,20ZM21,20L22,20L22,21L21,21L21,20ZM23,20L24,20L24,21L23,21L23,20ZM24,20L25,20L25,21L24,21L24,20ZM4,21L5,21L5,22L4,22L4,21ZM6,21L7,21L7,22L6,22L6,21ZM7,21L8,21L8,22L7,22L7,21ZM8,21L9,21L9,22L8,22L8,21ZM10,21L11,21L11,22L10,22L10,21ZM12,21L13,21L13,22L12,22L12,21ZM14,21L15,21L15,22L14,22L14,21ZM15,21L16,21L16,22L15,22L15,21ZM16,21L17,21L17,22L16,22L16,21ZM17,21L18,21L18,22L17,22L17,21ZM20,21L21,21L21,22L20,22L20,21ZM4,22L5,22L5,23L4,23L4,22ZM6,22L7,22L7,23L6,23L6,22ZM7,22L8,22L8,23L7,23L7,22ZM8,22L9,22L9,23L8,23L8,22ZM10,22L11,22L11,23L10,23L10,22ZM14,22L15,22L15,23L14,23L14,22ZM15,22L16,22L16,23L15,23L15,22ZM17,22L18,22L18,23L17,23L17,22ZM18,22L19,22L19,23L18,23L18,22ZM19,22L20,22L20,23L19,23L19,22ZM20,22L21,22L21,23L20,23L20,22ZM21,22L22,22L22,23L21,23L21,22ZM22,22L23,22L23,23L22,23L22,22ZM23,22L24,22L24,23L23,23L23,22ZM24,22L25,22L25,23L24,23L24,22ZM4,23L5,23L5,24L4,24L4,23ZM10,23L11,23L11,24L10,24L10,23ZM13,23L14,23L14,24L13,24L13,23ZM14,23L15,23L15,24L14,24L14,23ZM15,23L16,23L16,24L15,24L15,23ZM16,23L17,23L17,24L16,24L16,23ZM17,23L18,23L18,24L17,24L17,23ZM18,23L19,23L19,24L18,24L18,23ZM19,23L20,23L20,24L19,24L19,23ZM20,23L21,23L21,24L20,24L20,23ZM21,23L22,23L22,24L21,24L21,23ZM22,23L23,23L23,24L22,24L22,23ZM23,23L24,23L24,24L23,24L23,23ZM24,23L25,23L25,24L24,24L24,23ZM4,24L5,24L5,25L4,25L4,24ZM5,24L6,24L6,25L5,25L5,24ZM6,24L7,24L7,25L6,25L6,24ZM7,24L8,24L8,25L7,25L7,24ZM8,24L9,24L9,25L8,25L8,24ZM9,24L10,24L10,25L9,25L9,24ZM10,24L11,24L11,25L10,25L10,24ZM14,24L15,24L15,25L14,25L14,24ZM17,24L18,24L18,25L17,25L17,24Z" style="fill-rule:nonzero;stroke:rgb(242,13,175);stroke-width:0.2px;stroke-linecap:butt;"/>
    </g>
    <g transform="matrix(1,0,0,1,0,14)">
        <path d="M12,14L13,14L13,11L14,11L14,7L15,7L15,8L17,8L17,9L15,9L15,11L16,11L16,13L15,13L15,14L14,14L14,16L13,16L13,15L12,15L12,14M11,11L4,11L4,4L11,4L11,11M6,17L5,17L5,16L4,16L4,13L5,13L5,14L6,14L6,17M21,19L22,19L22,18L23,18L23,19L25,19L25,21L23,21L23,20L22,20L22,21L21,21L21,22L25,22L25,24L18,24L18,25L17,25L17,24L15,24L15,25L14,25L14,24L13,24L13,23L14,23L14,20L13,20L13,19L14,19L14,17L15,17L15,19L16,19L16,20L15,20L15,21L16,21L16,20L17,20L17,21L18,21L18,22L20,22L20,20L21,20L21,19M18,13L21,13L21,12L23,12L23,14L25,14L25,15L23,15L23,16L22,16L22,14L20,14L20,15L21,15L21,16L22,16L22,18L21,18L21,17L19,17L19,19L18,19L18,18L16,18L16,17L18,17L18,16L19,16L19,14L18,14L18,13M10,16L10,15L11,15L11,14L10,14L10,13L9,13L9,15L8,15L8,17L12,17L12,19L13,19L13,16L12,16L12,15L11,15L11,16L10,16M9,13L7,13L7,12L9,12L9,13M7,14L6,14L6,13L7,13L7,14M23,18L23,16L24,16L24,18L23,18M24,10L24,5L19,5L19,10L24,10M17,19L18,19L18,20L17,20L17,19M20,9L20,6L23,6L23,9L20,9M13,20L12,20L12,22L13,22L13,20M17,15L17,14L18,14L18,16L16,16L16,15L17,15M13,7L14,7L14,6L12,6L12,8L13,8L13,7M17,4L16,4L16,5L17,5L17,4M15,6L16,6L16,7L15,7L15,6M17,11L16,11L16,10L17,10L17,11M12,10L13,10L13,11L12,11L12,10M10,13L10,12L12,12L12,14L11,14L11,13L10,13M11,25L4,25L4,18L11,18L11,25M25,11L18,11L18,4L25,4L25,11M16,15L15,15L15,14L16,14L16,15M8,15L7,15L7,14L8,14L8,15M5,24L5,19L10,19L10,24L5,24M17,22L16,22L16,23L17,23L17,22M5,10L5,5L10,5L10,10L5,10M9,9L6,9L6,6L9,6L9,9M6,20L9,20L9,23L6,23L6,20"/>
    </g>
    <g transform="matrix(1,0,0,1,-1,-43.3599)">
        <text x="64.94px" y="50.225px" style="font-family:'ArialMT', 'Arial', sans-serif;font-size:4px;">optimized</text>
        <g transform="matrix(4,0,0,4,81.0605,54.356)">
        </g>
        <text x="65.939px" y="54.356px" style="font-family:'ArialMT', 'Arial', sans-serif;font-size:4px;">svg path</text>
    </g>
    <g transform="matrix(1,0,0,1,-30,-43.3599)">
        <text x="67.495px" y="50.225px" style="font-family:'ArialMT', 'Arial', sans-serif;font-size:4px;">default</text>
        <g transform="matrix(4,0,0,4,81.0605,54.356)">
        </g>
        <text x="65.939px" y="54.356px" style="font-family:'ArialMT', 'Arial', sans-serif;font-size:4px;">svg path</text>
    </g>
    <g transform="matrix(1,0,0,1,-59,-43.3599)">
        <g transform="matrix(4,0,0,4,78.9473,53.7925)">
        </g>
        <text x="68.053px" y="53.792px" style="font-family:'ArialMT', 'Arial', sans-serif;font-size:4px;">image</text>
    </g>
</svg>
